<?xml version="1.0" standalone="no"?>
<!DOCTYPE svg PUBLIC "-//W3C//DTD SVG 20010904//EN"
 "http://www.w3.org/TR/2001/REC-SVG-20010904/DTD/svg10.dtd">
<svg version="1.0" xmlns="http://www.w3.org/2000/svg"
 width="500.000000pt" height="500.000000pt" viewBox="0 0 500.000000 500.000000"
 preserveAspectRatio="xMidYMid meet">

<g transform="translate(0.000000,500.000000) scale(0.100000,-0.100000)"
fill="#000000" stroke="none">
<path d="M0 2500 l0 -2500 2500 0 2500 0 0 2500 0 2500 -2500 0 -2500 0 0
-2500z m2648 1999 c345 -38 675 -201 932 -459 383 -385 546 -946 434 -1489
-114 -552 -518 -1013 -1048 -1195 -426 -147 -913 -95 -1301 139 -431 260 -716
708 -775 1220 -75 663 279 1329 866 1623 282 143 579 196 892 161z m194 -3409
c19 0 1 -25 -22 -30 -33 -8 -38 -30 -6 -30 31 0 36 -29 6 -37 -17 -5 -20 -14
-20 -64 0 -56 -1 -59 -25 -59 -24 0 -25 3 -25 55 0 30 -6 64 -12 75 -10 15
-10 23 -2 28 7 4 13 16 15 27 5 22 47 47 67 40 8 -3 18 -5 24 -5z m-1822 -20
c0 -13 -7 -20 -19 -20 -22 0 -35 15 -26 30 12 19 45 11 45 -10z m395 0 c0 -8
-10 -16 -22 -18 -18 -3 -23 2 -23 18 0 16 5 21 23 18 12 -2 22 -10 22 -18z
m205 0 c0 -13 -7 -20 -19 -20 -22 0 -35 15 -26 30 12 19 45 11 45 -10z m225 0
c0 -8 -10 -16 -22 -18 -18 -3 -23 2 -23 18 0 16 5 21 23 18 12 -2 22 -10 22
-18z m855 -75 c0 -57 4 -95 10 -95 6 0 10 -7 10 -16 0 -11 -8 -14 -27 -12
l-28 3 -3 108 c-3 102 -2 107 18 107 19 0 20 -6 20 -95z m640 0 c0 -57 4 -95
10 -95 6 0 10 -7 10 -16 0 -11 -8 -14 -27 -12 l-28 3 -3 108 c-3 102 -2 107
18 107 19 0 20 -6 20 -95z m95 75 c0 -8 -10 -16 -22 -18 -18 -3 -23 2 -23 18
0 16 5 21 23 18 12 -2 22 -10 22 -18z m245 -22 c0 -33 3 -39 12 -30 18 18 63
15 80 -5 24 -28 30 -60 18 -98 -13 -39 -24 -44 -97 -43 l-53 0 0 109 c0 102 1
109 20 109 17 0 20 -7 20 -42z m195 22 c0 -8 -10 -16 -22 -18 -18 -3 -23 2
-23 18 0 16 5 21 23 18 12 -2 22 -10 22 -18z m85 -75 c0 -57 4 -95 10 -95 6 0
10 -7 10 -15 0 -22 -47 -19 -60 4 -5 11 -10 60 -10 110 0 90 0 91 25 91 25 0
25 0 25 -95z m90 75 c0 -21 -33 -29 -45 -10 -9 15 4 30 26 30 12 0 19 -7 19
-20z m-3250 -10 c24 -24 26 -57 4 -88 -11 -16 -25 -22 -55 -22 -39 0 -39 0
-39 -40 0 -33 -3 -40 -20 -40 -19 0 -20 7 -20 105 l0 105 55 0 c42 0 60 -5 75
-20z m1634 7 c16 -11 16 -15 3 -25 -10 -9 -22 -10 -39 -3 -25 9 -58 -2 -58
-19 0 -5 12 -13 28 -16 61 -15 82 -33 82 -69 0 -46 -22 -65 -75 -65 -53 0 -96
29 -72 48 11 10 20 9 41 -2 15 -7 36 -11 47 -9 32 9 18 37 -26 51 -21 7 -45
18 -52 24 -18 15 -16 58 4 80 19 22 90 25 117 5z m640 -9 c20 -28 20 -47 1
-68 -13 -14 -12 -22 5 -68 l20 -52 -24 0 c-19 0 -27 8 -37 38 -22 68 -59 73
-59 7 0 -38 -3 -45 -20 -45 -19 0 -20 7 -20 105 l0 105 59 0 c51 0 62 -3 75
-22z m-1548 -28 c31 0 32 -27 2 -32 -20 -3 -23 -9 -23 -48 0 -38 3 -45 20 -45
11 0 21 -8 23 -18 3 -13 -4 -17 -30 -17 -47 0 -58 15 -58 77 0 29 -4 53 -10
53 -5 0 -10 7 -10 15 0 8 5 15 10 15 6 0 10 6 10 14 0 22 34 25 38 4 2 -12 12
-18 28 -18z m2635 0 c10 0 19 -7 19 -15 0 -8 -9 -15 -21 -15 -18 0 -20 -5 -17
-47 2 -35 7 -48 18 -48 15 0 30 -13 30 -27 0 -13 -65 -9 -78 4 -7 7 -12 34
-12 60 0 34 -5 50 -15 54 -8 4 -15 12 -15 20 0 8 7 14 15 14 8 0 15 6 15 14 0
22 34 25 38 4 2 -10 12 -18 23 -18z m-1961 6 c0 -8 -5 -18 -10 -21 -6 -4 -7
-12 -1 -22 18 -33 -17 -73 -65 -73 -8 0 -12 -4 -9 -10 3 -5 21 -10 39 -10 38
0 56 -15 56 -47 0 -34 -42 -57 -92 -50 -51 7 -73 30 -56 61 7 11 11 27 9 34
-1 8 3 19 9 27 8 9 8 15 0 20 -15 9 -12 51 6 69 8 9 31 16 50 16 19 0 34 5 34
10 0 6 7 10 15 10 8 0 15 -6 15 -14z m-1310 -18 c0 -9 3 -9 12 0 19 19 48 15
48 -8 0 -13 -7 -20 -20 -20 -25 0 -40 -29 -40 -79 0 -34 -3 -41 -20 -41 -18 0
-20 7 -20 80 0 73 2 80 20 80 11 0 20 -5 20 -12z m130 -68 c0 -73 -2 -80 -20
-80 -18 0 -20 7 -20 80 0 73 2 80 20 80 18 0 20 -7 20 -80z m169 54 c46 -59
13 -134 -58 -134 -50 0 -76 28 -76 82 0 30 6 45 24 59 35 28 85 25 110 -7z
m151 6 c0 -12 -9 -20 -22 -22 -20 -3 -23 -10 -26 -60 -3 -54 -5 -58 -27 -58
-24 0 -25 2 -25 79 l0 79 50 0 c42 0 50 -3 50 -18z m70 -60 c0 -73 -2 -80 -20
-80 -18 0 -20 7 -20 80 0 73 2 80 20 80 18 0 20 -7 20 -80z m210 0 c0 -73 -2
-80 -20 -80 -18 0 -20 7 -20 80 0 73 2 80 20 80 18 0 20 -7 20 -80z m150 61
c0 -11 -16 -39 -36 -63 l-37 -43 37 -3 c23 -2 36 -8 36 -18 0 -11 -14 -14 -60
-14 -51 0 -60 3 -60 18 0 10 16 37 35 59 19 23 35 43 35 46 0 3 -14 4 -32 3
-23 -1 -33 4 -36 17 -3 15 5 17 57 17 53 0 61 -2 61 -19z m70 -61 c0 -73 -2
-80 -20 -80 -18 0 -20 7 -20 80 0 73 2 80 20 80 18 0 20 -7 20 -80z m90 68 c0
-9 3 -9 12 0 15 15 61 15 76 0 7 -7 12 -40 12 -80 0 -61 -2 -68 -20 -68 -17 0
-20 7 -20 53 0 60 -13 81 -42 66 -14 -8 -18 -21 -18 -64 0 -48 -2 -55 -20 -55
-18 0 -20 7 -20 80 0 73 2 80 20 80 11 0 20 -5 20 -12z m673 0 c9 -7 20 -28
23 -45 l7 -33 -58 0 c-58 0 -68 -11 -32 -34 12 -8 23 -7 38 2 27 17 49 1 29
-23 -19 -22 -85 -20 -110 5 -28 28 -27 87 2 117 24 26 74 31 101 11z m633 4
c15 -10 34 -47 34 -66 0 -13 -12 -16 -56 -16 -57 0 -67 -11 -31 -34 12 -8 23
-7 38 2 27 17 49 1 29 -23 -19 -22 -85 -20 -110 5 -28 28 -27 87 2 117 21 23
71 31 94 15z m194 -72 c0 -73 -2 -80 -20 -80 -18 0 -20 7 -20 80 0 73 2 80 20
80 18 0 20 -7 20 -80z m154 58 c9 -12 16 -42 16 -65 0 -24 5 -43 10 -43 6 0
10 -7 10 -15 0 -18 -45 -21 -56 -4 -4 8 -9 8 -17 0 -19 -19 -65 -13 -77 9 -18
33 -3 58 41 71 21 7 39 18 39 26 0 16 -14 17 -42 2 -30 -16 -50 7 -24 27 31
22 82 18 100 -8z m286 -58 c0 -73 -2 -80 -20 -80 -18 0 -20 7 -20 80 0 73 2
80 20 80 18 0 20 -7 20 -80z m180 0 c0 -73 -2 -80 -20 -80 -18 0 -20 7 -20 80
0 73 2 80 20 80 18 0 20 -7 20 -80z m208 28 l20 -53 12 30 c7 17 16 40 21 53
5 13 17 22 30 22 13 0 19 -5 16 -12 -2 -7 -19 -51 -37 -97 -36 -93 -58 -121
-95 -121 -18 0 -25 5 -25 20 0 14 7 20 24 20 36 0 37 18 5 95 -33 84 -35 95
-10 95 13 0 24 -15 39 -52z"/>
<path d="M2235 4394 c-127 -19 -295 -75 -423 -139 -415 -208 -701 -585 -804
-1059 -32 -147 -32 -466 0 -609 139 -625 587 -1072 1197 -1193 125 -25 395
-25 520 0 402 80 740 304 966 640 108 160 185 344 231 553 32 143 32 462 0
609 -59 275 -178 513 -357 717 -220 251 -551 433 -876 481 -128 19 -331 19
-454 0z m1231 -1210 c23 -8 49 -23 59 -34 16 -18 16 -21 -11 -59 -16 -22 -33
-41 -37 -41 -4 0 -20 9 -35 20 -15 11 -45 22 -67 25 -80 12 -135 -43 -151
-150 l-7 -50 41 37 c49 44 74 52 147 46 102 -9 165 -86 165 -203 0 -145 -103
-236 -253 -222 -152 14 -237 144 -224 347 8 138 59 235 146 280 57 29 152 31
227 4z m-1654 -299 c59 -170 107 -314 107 -318 1 -4 -29 -7 -66 -5 l-66 3 -22
65 -22 65 -123 0 -123 0 -22 -65 -22 -65 -66 -3 -66 -3 90 263 c50 145 100
289 111 321 l20 58 81 -3 81 -3 108 -310z m548 115 l0 -200 50 0 50 0 0 -50 0
-50 -50 0 -50 0 0 -70 0 -70 -60 0 -60 0 0 70 0 70 -145 0 -145 0 0 49 c0 47
9 64 126 250 l126 201 79 0 79 0 0 -200z m558 -2 l2 -198 45 0 45 0 0 -50 0
-50 -45 0 -45 0 0 -70 0 -70 -65 0 -65 0 0 70 0 70 -145 0 -145 0 0 47 c0 43
11 65 128 250 l127 204 80 -3 80 -3 3 -197z"/>
<path d="M3292 2865 c-67 -29 -78 -131 -20 -180 68 -57 168 -13 168 75 0 60
-23 97 -68 109 -45 13 -40 13 -80 -4z"/>
<path d="M1577 2947 c-20 -62 -37 -118 -37 -125 0 -13 160 -18 160 -4 1 15
-74 242 -80 242 -3 0 -22 -51 -43 -113z"/>
<path d="M2175 2958 c-27 -45 -61 -98 -74 -120 l-23 -38 81 0 81 0 0 120 c0
66 -3 120 -7 120 -5 0 -30 -37 -58 -82z"/>
<path d="M2766 3018 c-7 -13 -39 -63 -70 -111 -31 -48 -56 -92 -56 -97 0 -6
33 -10 75 -10 l75 0 0 120 c0 66 -2 120 -5 120 -2 0 -11 -10 -19 -22z"/>
<path d="M3703 992 c-37 -24 -14 -109 24 -86 22 13 29 60 12 80 -13 16 -19 17
-36 6z"/>
<path d="M710 1016 c0 -32 3 -36 25 -36 26 0 48 29 37 47 -4 6 -20 15 -35 18
-26 7 -27 5 -27 -29z"/>
<path d="M2980 1014 c0 -22 4 -25 28 -22 19 2 28 9 30 26 3 19 -1 22 -27 22
-27 0 -31 -4 -31 -26z"/>
<path d="M2113 984 c-7 -18 11 -39 26 -30 17 11 13 46 -4 46 -9 0 -18 -7 -22
-16z"/>
<path d="M2102 853 c4 -20 36 -28 57 -14 21 13 4 31 -30 31 -24 0 -30 -4 -27
-17z"/>
<path d="M1112 988 c-7 -7 -12 -27 -12 -44 0 -25 5 -34 22 -40 40 -12 64 48
32 80 -19 19 -26 20 -42 4z"/>
<path d="M2530 985 c-11 -13 -8 -15 20 -15 21 0 30 4 28 13 -7 18 -33 20 -48
2z"/>
<path d="M3170 985 c-11 -13 -8 -15 20 -15 21 0 30 4 28 13 -7 18 -33 20 -48
2z"/>
<path d="M3517 933 c-4 -3 -7 -12 -7 -20 0 -21 37 -15 43 7 4 14 0 20 -12 20
-10 0 -21 -3 -24 -7z"/>
</g>
</svg>
