<?xml version="1.0" standalone="no"?>
<!DOCTYPE svg PUBLIC "-//W3C//DTD SVG 20010904//EN"
 "http://www.w3.org/TR/2001/REC-SVG-20010904/DTD/svg10.dtd">
<svg version="1.0" xmlns="http://www.w3.org/2000/svg"
 width="4000.000000pt" height="3645.000000pt" viewBox="0 0 4000.000000 3645.000000"
 preserveAspectRatio="xMidYMid meet">

<g transform="translate(0.000000,3645.000000) scale(0.100000,-0.100000)"
fill="#000000" stroke="none">
<path d="M0 18225 l0 -18225 20000 0 20000 0 0 18225 0 18225 -20000 0 -20000
0 0 -18225z m31290 3745 l0 -11290 -11290 0 -11290 0 0 11290 0 11290 11290 0
11290 0 0 -11290z m-22344 -12991 c33 -33 81 -158 580 -1505 364 -983 544
-1482 544 -1507 0 -29 -7 -46 -30 -68 l-29 -30 -286 3 -287 3 -32 35 c-23 26
-57 101 -130 293 l-99 257 -636 0 -636 0 -94 -248 c-52 -136 -103 -262 -114
-280 -35 -60 -47 -62 -347 -62 -167 0 -279 4 -291 10 -23 13 -49 61 -49 93 0
27 1070 2923 1098 2970 10 18 33 42 52 55 l34 23 358 -3 358 -3 36 -36z m2214
13 c21 -22 30 -42 35 -83 3 -30 5 -709 3 -1509 -2 -1159 -6 -1460 -16 -1477
-28 -50 -49 -53 -363 -53 l-291 0 -34 34 -34 34 0 1501 c0 1049 3 1507 11
1524 25 54 39 56 362 57 l299 0 28 -28z m2198 17 c346 -38 608 -148 799 -338
160 -158 256 -355 306 -626 20 -112 22 -150 22 -585 0 -327 -4 -492 -13 -555
-52 -363 -185 -621 -403 -784 -149 -111 -313 -177 -554 -223 -104 -20 -149
-21 -847 -25 l-736 -4 -34 30 -33 29 0 1517 0 1517 33 29 32 29 666 0 c402 0
703 -4 762 -11z m3251 -7 c19 -9 43 -28 53 -42 10 -14 263 -689 564 -1500 590
-1594 563 -1512 509 -1566 l-24 -24 -278 0 c-258 0 -280 1 -310 20 -17 10 -37
29 -44 42 -7 13 -56 136 -109 273 l-96 250 -636 3 -636 2 -32 -82 c-18 -46
-63 -164 -102 -263 -48 -127 -78 -189 -99 -210 l-29 -30 -284 -3 -283 -3 -32
26 c-26 23 -31 34 -31 71 0 33 103 322 421 1181 232 626 473 1276 535 1446 63
169 121 321 129 337 18 34 52 69 80 80 11 5 173 9 360 9 305 1 344 -1 374 -17z
m2169 -15 c16 -15 301 -452 633 -971 l604 -944 5 942 c3 517 9 948 13 957 4 8
21 23 36 32 25 15 63 17 296 17 l267 0 34 -34 34 -34 -2 -1512 -3 -1512 -33
-29 -32 -29 -253 0 c-274 1 -273 0 -324 60 -25 29 -581 868 -1097 1655 l-111
169 -5 -905 c-5 -850 -6 -907 -23 -932 -10 -16 -29 -32 -43 -37 -14 -6 -141
-10 -282 -10 -237 0 -259 2 -289 20 -21 13 -35 31 -42 57 -15 52 -15 2943 -1
2995 6 20 23 47 37 58 26 20 36 21 289 18 l263 -3 29 -28z m4282 23 c193 -24
387 -89 507 -171 152 -105 247 -243 299 -436 22 -82 26 -121 28 -238 1 -187
-18 -263 -106 -402 -44 -69 -145 -169 -213 -208 -25 -15 -42 -31 -39 -36 3 -5
22 -18 42 -29 110 -57 248 -207 308 -335 19 -38 43 -108 55 -154 19 -74 21
-104 16 -230 -5 -166 -26 -261 -82 -380 -114 -240 -319 -398 -615 -474 -166
-43 -255 -47 -1056 -47 -687 0 -758 2 -784 17 -16 9 -33 27 -39 40 -18 38 -15
3010 3 3042 29 52 6 50 826 51 464 0 799 -4 850 -10z m3399 -4 c15 -8 32 -26
39 -41 9 -19 12 -252 12 -935 l0 -910 226 0 226 0 28 -28 c37 -38 42 -77 38
-304 -3 -171 -5 -189 -24 -215 -37 -50 -53 -53 -281 -53 l-213 0 0 -291 0
-291 -34 -34 -34 -34 -276 0 -276 0 -32 29 -33 29 -3 296 -3 296 -729 2 -730
3 -32 33 -33 32 0 228 c0 220 1 228 24 272 19 36 510 717 811 1125 37 50 158
216 270 370 284 391 287 395 334 416 37 17 71 19 369 19 265 0 333 -3 356 -14z
m3018 -10 l28 -24 5 -924 5 -923 226 -5 c247 -5 250 -6 276 -67 19 -47 19
-420 -1 -468 -25 -60 -48 -65 -291 -65 l-215 0 0 -291 c0 -180 -4 -298 -10
-310 -24 -45 -53 -49 -332 -49 -290 0 -301 2 -330 60 -16 31 -18 68 -18 312
l0 278 -731 2 -731 3 -29 33 -29 32 0 228 c0 199 3 232 19 267 14 31 518 730
836 1160 28 39 153 210 277 380 125 171 239 323 255 339 53 54 61 55 425 56
l337 0 28 -24z m2757 -2 c25 -26 30 -44 26 -92 -1 -13 -141 -214 -311 -447
-170 -233 -309 -425 -309 -427 0 -1 64 -3 143 -4 113 0 161 -5 237 -24 227
-55 407 -151 566 -303 256 -243 364 -561 309 -917 -34 -227 -136 -423 -309
-596 -217 -216 -481 -329 -828 -354 -734 -53 -1298 315 -1403 914 -19 111 -19
272 -1 368 27 140 127 385 210 517 93 147 160 241 477 671 488 663 479 650
527 687 l44 33 297 0 298 0 27 -26z m-24555 -4220 c198 -45 351 -192 404 -389
49 -181 50 -614 2 -800 -54 -210 -199 -347 -415 -391 -126 -25 -328 -16 -434
20 -188 64 -295 187 -347 399 -26 108 -37 430 -20 601 23 238 101 388 253 486
138 90 359 119 557 74z m9019 16 c147 -19 305 -93 389 -181 79 -84 143 -238
113 -274 -11 -13 -32 -15 -109 -13 l-96 3 -31 58 c-49 93 -96 142 -171 179
-66 32 -70 33 -203 33 -125 0 -139 -2 -192 -27 -119 -56 -186 -150 -208 -296
-8 -46 -10 -168 -8 -330 4 -232 7 -264 26 -324 29 -86 74 -144 142 -186 71
-42 108 -53 209 -59 144 -10 249 25 336 112 72 73 96 139 103 283 l5 112 -181
0 c-210 0 -212 1 -212 84 0 95 -13 91 309 91 217 0 283 -3 293 -13 10 -10 13
-56 12 -185 -1 -201 -15 -271 -76 -390 -63 -122 -180 -214 -335 -263 -66 -21
-291 -30 -377 -15 -278 48 -443 240 -477 552 -18 162 -6 523 21 624 64 244
240 395 496 424 101 12 131 12 222 1z m2098 -15 c188 -48 339 -192 363 -346
12 -75 1 -84 -104 -84 -96 0 -106 6 -125 75 -14 53 -70 112 -136 145 -57 29
-64 30 -194 30 -133 0 -137 -1 -203 -33 -88 -43 -118 -91 -119 -185 -1 -148
70 -197 449 -311 276 -83 401 -160 454 -279 21 -45 24 -67 24 -167 0 -105 -3
-120 -28 -172 -55 -113 -175 -203 -322 -244 -88 -25 -338 -30 -435 -10 -216
45 -392 204 -408 367 -7 71 4 79 103 79 93 0 91 2 136 -89 36 -72 91 -122 168
-153 49 -20 74 -23 201 -22 128 0 152 3 205 23 81 32 138 91 155 160 36 152
-36 227 -305 314 -60 19 -155 50 -210 67 -248 80 -362 170 -400 317 -60 229
69 438 312 509 123 36 299 39 419 9z m-14604 -23 c146 -39 241 -107 296 -210
105 -196 72 -457 -73 -590 -64 -59 -112 -85 -208 -114 -64 -19 -103 -22 -339
-25 l-268 -5 0 -292 c0 -214 -3 -295 -12 -304 -18 -18 -182 -16 -197 2 -8 9
-10 221 -9 777 l3 763 25 14 c20 10 94 12 365 9 302 -4 349 -7 417 -25z m1416
5 c89 -21 203 -79 256 -132 77 -77 116 -188 116 -328 0 -183 -83 -319 -240
-395 l-78 -38 174 -302 c96 -165 174 -309 174 -319 0 -35 -21 -43 -106 -43
-80 0 -83 1 -110 33 -16 18 -101 159 -189 314 l-160 282 -197 1 -198 0 0 -299
c0 -259 -2 -302 -16 -315 -21 -21 -176 -23 -193 -2 -8 9 -10 221 -9 777 l3
763 25 14 c36 19 657 10 748 -11z m909 -3 c10 -14 13 -161 13 -770 0 -678 -2
-754 -16 -769 -13 -12 -34 -15 -102 -13 -81 3 -87 5 -99 28 -10 19 -13 186
-12 755 1 402 4 741 8 755 9 31 39 40 125 36 53 -3 73 -8 83 -22z m2713 2
c240 -55 357 -190 368 -422 10 -235 -73 -366 -294 -460 -21 -9 -15 -21 118
-249 224 -385 220 -377 202 -403 -14 -20 -24 -22 -99 -22 -81 0 -83 1 -111 33
-16 18 -101 160 -189 315 l-159 282 -198 0 -198 0 0 -303 c0 -222 -3 -306 -12
-315 -19 -19 -173 -16 -192 4 -14 14 -16 97 -16 768 0 781 0 774 40 790 8 3
164 4 345 2 245 -4 347 -9 395 -20z m904 5 c14 -12 16 -85 16 -775 0 -579 -3
-765 -12 -774 -19 -19 -173 -16 -192 4 -14 14 -16 95 -14 777 l3 761 25 14
c32 16 151 12 174 -7z m1452 -6 c10 -14 14 -41 12 -90 -4 -96 0 -95 -270 -95
l-218 0 0 -673 c0 -510 -3 -676 -12 -685 -7 -7 -43 -12 -92 -12 -129 0 -116
-76 -116 702 l0 668 -219 0 c-269 0 -263 -2 -259 110 3 68 5 76 28 87 20 10
145 13 578 11 540 -3 554 -3 568 -23z m481 -1 c10 -14 13 -161 13 -770 0 -678
-2 -754 -16 -769 -13 -12 -34 -15 -102 -13 -81 3 -87 5 -99 28 -10 19 -13 186
-12 755 1 402 4 741 8 755 9 31 39 40 125 36 53 -3 73 -8 83 -22z m1435 8 c9
-9 13 -41 13 -95 l0 -83 -61 -84 c-33 -47 -226 -314 -428 -595 l-368 -510 428
-3 c389 -2 430 -4 442 -19 18 -25 16 -138 -4 -157 -14 -14 -79 -16 -569 -16
-490 0 -555 2 -569 16 -12 11 -16 36 -16 91 l0 75 64 92 c36 50 231 318 434
596 l370 505 -415 5 c-353 4 -415 7 -423 20 -14 22 -12 134 3 152 6 9 19 18
27 21 8 3 250 5 537 4 414 -2 525 -5 535 -15z m532 -1 c14 -12 16 -84 16 -768
0 -501 -3 -761 -10 -774 -9 -17 -22 -19 -99 -19 -62 0 -92 4 -100 14 -8 9 -10
221 -9 777 l3 763 25 14 c32 16 151 12 174 -7z m603 6 c5 -3 178 -265 384
-581 l374 -576 5 565 c6 657 -5 600 116 600 63 0 78 -3 90 -19 12 -17 14 -138
14 -770 0 -683 -1 -751 -17 -768 -13 -14 -31 -18 -93 -18 -65 0 -80 3 -96 21
-10 11 -73 104 -139 205 -66 101 -230 352 -365 558 l-245 373 -5 -569 c-4
-491 -7 -570 -20 -578 -8 -6 -51 -9 -95 -8 -74 3 -80 5 -92 28 -16 32 -19
1463 -3 1505 5 14 20 30 32 35 23 10 138 7 155 -3z m5873 0 c23 -11 25 -19 28
-87 2 -62 0 -77 -14 -87 -14 -10 -108 -13 -406 -13 l-388 0 0 -245 0 -245 369
0 c314 0 370 -2 381 -15 7 -8 12 -43 12 -80 0 -37 -5 -72 -12 -80 -11 -13 -67
-15 -381 -15 l-369 0 0 -255 0 -255 396 0 c253 0 402 -4 415 -10 16 -9 19 -22
19 -83 0 -44 -5 -78 -12 -85 -9 -9 -136 -12 -509 -12 -439 0 -499 2 -513 16
-14 14 -16 97 -16 768 0 781 0 775 40 789 8 3 222 6 475 6 351 1 466 -2 485
-12z m574 -6 c14 -12 16 -78 16 -692 l0 -679 388 0 c288 0 391 -3 400 -12 7
-7 12 -41 12 -83 0 -42 -5 -76 -12 -83 -19 -19 -981 -17 -997 2 -8 9 -10 221
-9 777 l3 763 25 14 c32 16 151 12 174 -7z m2056 6 c23 -11 25 -19 28 -86 2
-45 -2 -78 -9 -87 -9 -12 -78 -14 -400 -14 l-389 0 0 -265 0 -265 368 0 c273
0 371 -3 380 -12 18 -18 16 -143 -4 -162 -13 -14 -62 -16 -380 -16 l-364 0 0
-314 c0 -273 -2 -317 -16 -330 -11 -12 -36 -16 -94 -16 -58 0 -83 4 -94 16
-14 14 -16 97 -16 768 0 781 0 775 40 789 8 3 220 6 470 6 347 1 461 -2 480
-12z m1628 -10 c89 -21 203 -79 256 -132 77 -77 116 -188 116 -328 0 -183 -83
-319 -240 -395 l-78 -38 174 -302 c96 -165 174 -309 174 -319 0 -35 -21 -43
-106 -43 -80 0 -83 1 -110 33 -16 18 -101 159 -189 314 l-160 282 -197 1 -198
0 0 -299 c0 -259 -2 -302 -16 -315 -21 -21 -176 -23 -193 -2 -8 9 -10 221 -9
777 l3 763 25 14 c36 19 657 10 748 -11z m1718 -1 c8 -12 14 -44 14 -82 0 -99
23 -94 -432 -94 l-388 0 0 -245 0 -245 369 0 c428 0 401 6 401 -95 0 -101 27
-95 -401 -95 l-369 0 0 -255 0 -255 405 0 405 0 16 -25 c20 -31 16 -141 -7
-156 -8 -5 -226 -8 -514 -6 l-499 2 -13 25 c-10 20 -13 185 -12 755 1 402 4
741 8 755 4 14 17 27 31 31 14 4 238 7 498 6 456 -2 474 -3 488 -21z m555 -5
c18 -22 19 -54 19 -692 l0 -669 390 0 c375 0 390 -1 400 -19 16 -30 12 -123
-6 -149 l-15 -22 -481 0 c-434 0 -483 2 -500 17 -17 15 -18 52 -18 768 0 586
3 755 13 767 17 22 41 27 116 24 53 -2 67 -6 82 -25z m1276 3 c10 -14 13 -161
13 -770 0 -678 -2 -754 -16 -769 -13 -12 -34 -15 -102 -13 -81 3 -87 5 -99 28
-10 19 -13 186 -12 755 1 402 4 741 8 755 9 31 39 40 125 36 53 -3 73 -8 83
-22z m1092 0 c21 -20 581 -1479 581 -1511 0 -35 -21 -43 -107 -43 -100 0 -90
-12 -172 200 l-59 155 -365 3 c-284 2 -366 -1 -374 -10 -5 -7 -36 -82 -69
-167 -32 -85 -65 -160 -72 -168 -20 -20 -166 -18 -186 3 -9 8 -16 21 -16 29 0
12 27 86 95 260 13 33 123 321 245 640 122 319 226 588 231 597 14 27 65 38
162 35 71 -3 91 -7 106 -23z m1669 2 c161 -41 256 -134 297 -293 40 -154 -13
-318 -130 -402 l-46 -33 38 -27 c56 -41 116 -110 142 -164 76 -157 39 -375
-86 -500 -56 -56 -164 -113 -243 -127 -33 -6 -208 -9 -425 -8 l-369 3 -13 25
c-10 19 -13 185 -13 746 0 397 3 735 6 752 4 21 15 34 33 41 17 7 153 9 386 7
286 -3 373 -7 423 -20z m875 5 c9 -9 13 -203 15 -763 2 -663 1 -754 -13 -774
-14 -22 -22 -24 -97 -24 -131 0 -118 -89 -118 785 0 793 -1 776 45 789 34 9
156 -1 168 -13z m597 6 l25 -13 5 -679 5 -680 384 -3 c263 -1 388 -6 398 -13
17 -15 18 -150 1 -167 -9 -9 -133 -12 -494 -12 -426 0 -484 2 -498 16 -14 14
-16 95 -14 777 l3 761 25 13 c32 16 128 16 160 0z m1293 -6 c9 -9 13 -203 15
-763 2 -663 1 -754 -13 -774 -14 -22 -22 -24 -97 -24 -131 0 -118 -89 -118
785 0 793 -1 776 45 789 34 9 156 -1 168 -13z m1427 6 c23 -11 25 -19 28 -87
4 -112 10 -110 -259 -110 l-219 0 0 -663 c0 -583 -2 -665 -16 -685 -14 -20
-24 -22 -99 -22 -75 0 -85 2 -99 22 -14 20 -16 102 -16 685 l0 663 -218 0
c-266 0 -262 -1 -262 99 0 67 10 93 40 104 8 3 258 6 555 6 416 1 546 -2 565
-12z m364 -8 c7 -8 102 -162 211 -344 109 -181 209 -347 222 -368 l24 -38 210
351 c116 194 223 366 239 383 24 27 35 31 91 34 72 4 112 -11 117 -44 2 -13
-65 -137 -179 -329 -100 -170 -218 -372 -264 -449 -45 -77 -87 -150 -94 -162
-7 -15 -11 -111 -11 -295 0 -200 -3 -277 -12 -286 -19 -19 -173 -16 -192 4
-14 13 -16 54 -16 290 l0 274 -276 466 c-171 291 -274 475 -272 488 5 33 45
48 121 43 41 -3 74 -10 81 -18z"/>
<path d="M11995 28601 c-104 -30 -184 -79 -276 -171 -93 -92 -145 -179 -174
-295 -13 -52 -15 -642 -15 -5220 0 -4972 1 -5161 19 -5200 10 -22 30 -54 45
-72 36 -42 154 -121 227 -150 l57 -23 8090 0 c8031 0 8090 0 8153 20 124 38
284 156 332 245 l22 40 3 5105 c3 4674 1 5111 -13 5175 -9 39 -36 111 -60 160
-97 200 -264 334 -490 394 -28 8 -2417 11 -7950 10 -7462 0 -7913 -1 -7970
-18z m15835 -4806 l0 -4185 -7720 0 -7720 0 0 4185 0 4185 7720 0 7720 0 0
-4185z"/>
<path d="M18287 17086 c-12 -292 -54 -525 -127 -709 -68 -170 -112 -230 -330
-447 -108 -107 -213 -221 -233 -252 -40 -60 -67 -126 -67 -162 0 -11 -7 -30
-15 -40 -23 -30 -18 -49 18 -73 37 -25 70 -39 147 -61 49 -14 284 -16 2275
-19 1622 -3 2242 -1 2300 7 91 13 254 63 302 91 60 37 59 99 -3 192 -15 23
-139 152 -275 287 -135 135 -261 267 -279 294 -44 65 -112 205 -145 296 -58
164 -113 444 -130 673 l-7 87 -1712 0 -1713 0 -6 -164z"/>
<path d="M8530 8305 c-21 -54 -450 -1243 -450 -1249 0 -3 207 -6 460 -6 253 0
460 2 460 3 0 3 -404 1135 -452 1267 -4 11 -9 6 -18 -15z"/>
<path d="M12580 7445 l0 -997 343 4 c379 5 418 10 552 72 129 61 213 175 255
347 48 196 49 959 1 1136 -59 223 -179 345 -398 405 -71 19 -110 22 -415 26
l-338 4 0 -997z"/>
<path d="M16030 7768 c-111 -310 -216 -598 -231 -640 l-28 -78 463 0 463 0
-224 626 c-123 345 -227 633 -232 641 -5 9 -80 -188 -211 -549z"/>
<path d="M22080 8120 l0 -370 368 0 c388 1 434 5 520 49 130 66 202 220 180
385 -21 154 -122 262 -276 295 -34 7 -187 11 -422 11 l-370 0 0 -370z"/>
<path d="M22080 6815 l0 -415 393 0 c222 0 411 5 435 10 72 17 135 52 189 106
195 194 140 551 -102 665 -89 42 -164 49 -557 49 l-358 0 0 -415z"/>
<path d="M25412 7686 l-413 -581 412 -3 c227 -1 414 -1 416 1 2 2 2 265 1 584
l-3 581 -413 -582z"/>
<path d="M28795 8220 c-22 -30 -210 -293 -417 -585 l-377 -530 416 -3 c229 -1
418 -1 420 1 2 2 2 267 1 588 l-3 584 -40 -55z"/>
<path d="M31542 7469 c-153 -20 -283 -90 -364 -196 -56 -74 -83 -144 -97 -249
-37 -272 98 -500 347 -586 57 -20 86 -23 202 -23 115 0 145 4 199 23 103 37
177 90 243 172 46 58 64 95 83 167 39 145 25 305 -37 427 -94 186 -336 297
-576 265z"/>
<path d="M7343 4582 c-106 -38 -186 -124 -225 -243 -19 -56 -22 -94 -26 -312
-6 -332 13 -434 99 -531 81 -92 182 -130 325 -124 77 3 101 9 155 36 105 51
156 112 194 232 27 83 34 525 10 641 -29 145 -94 236 -204 287 -76 36 -247 43
-328 14z"/>
<path d="M3600 4291 l0 -291 207 0 c113 0 236 5 272 11 169 29 248 129 239
303 -7 121 -52 195 -148 240 -42 19 -65 21 -307 24 l-263 3 0 -290z"/>
<path d="M5050 4299 l0 -281 238 4 c256 5 301 13 370 65 62 46 85 97 90 196 7
140 -35 221 -140 268 -51 23 -65 24 -305 27 l-253 3 0 -282z"/>
<path d="M8670 4301 l0 -281 193 0 c281 0 377 19 441 86 49 50 69 109 69 199
0 97 -22 154 -77 203 -72 63 -85 66 -368 70 l-258 3 0 -280z"/>
<path d="M24210 4299 l0 -281 238 4 c256 5 301 13 370 65 62 46 85 97 90 196
7 140 -35 221 -140 268 -51 23 -65 24 -305 27 l-253 3 0 -282z"/>
<path d="M29269 4514 c-6 -16 -71 -186 -144 -379 -74 -192 -137 -358 -140
-367 -7 -17 11 -18 295 -18 283 0 302 1 298 18 -7 23 -290 766 -294 771 -2 2
-9 -9 -15 -25z"/>
<path d="M30460 4350 l0 -241 263 3 c204 3 269 7 292 18 95 47 136 104 143
202 8 113 -34 189 -127 232 -43 19 -66 21 -308 24 l-263 3 0 -241z"/>
<path d="M30460 3656 l0 -276 235 0 c131 0 256 5 285 11 68 15 138 64 175 123
28 46 30 57 30 140 0 82 -3 96 -28 139 -31 53 -90 101 -146 118 -21 7 -141 14
-293 16 l-258 5 0 -276z"/>
</g>
</svg>
